<svg width="5" height="5" viewBox="0 0 5 5" fill="none" xmlns="http://www.w3.org/2000/svg">
<path d="M1.40632 0.639116L0.74707 1.29837L1.06464 1.61576C0.654835 2.20621 0.651313 2.81524 1.06446 3.22815C1.285 3.44869 1.52813 3.56047 1.78747 3.56047H1.78765C2.20578 3.56029 2.60228 3.27144 2.97159 2.97603C3.24617 2.75968 3.45669 2.64984 3.59732 2.64984C3.65197 2.64984 3.69314 2.66629 3.73024 2.70358C3.78447 2.7578 3.85035 2.85004 3.79892 3.02576C3.75921 3.16141 3.65568 3.31777 3.50758 3.46575C3.25206 3.72126 2.85355 3.85461 2.61789 3.75867L2.47483 3.70044L2.12307 4.57051L2.26631 4.62813C2.44095 4.69802 2.6222 4.73379 2.80515 4.73379C3.1495 4.73361 3.49768 4.60858 3.81968 4.37098L4.16215 4.71345L4.8214 4.05432L4.46181 3.69491C4.81029 3.21582 4.9361 2.52202 4.4241 2.00984C4.19682 1.78256 3.94349 1.66737 3.67092 1.66737C3.23063 1.66737 2.82112 1.95828 2.40518 2.28278C2.23334 2.41843 1.99768 2.60399 1.846 2.60399C1.80429 2.60399 1.77083 2.58887 1.73713 2.55536C1.68922 2.50745 1.6404 2.43416 1.68831 2.29019C1.7276 2.1716 1.82275 2.03467 1.9635 1.89392C2.13473 1.72238 2.39146 1.60258 2.58783 1.60258C2.61789 1.60258 2.64528 1.60568 2.66914 1.61151L2.80297 1.6446L3.10633 0.818244L2.95744 0.767116C2.5395 0.623571 2.14845 0.681924 1.72638 0.959481L1.40632 0.639116Z" fill="black"/>
</svg>