<svg width="15" height="12" viewBox="0 0 15 12" fill="none" xmlns="http://www.w3.org/2000/svg">
<path d="M1.66667 0.75C0.747396 0.75 0 1.53477 0 2.5V2.70234C0 2.88828 0.114583 3.04688 0.263021 3.14805C0.606771 3.3832 0.833333 3.78789 0.833333 4.25C0.833333 4.71211 0.606771 5.1168 0.263021 5.35195C0.114583 5.45312 0 5.61172 0 5.79766V7.75H15V5.79766C15 5.61172 14.8854 5.45312 14.737 5.35195C14.3932 5.1168 14.1667 4.71211 14.1667 4.25C14.1667 3.78789 14.3932 3.3832 14.737 3.14805C14.8854 3.04688 15 2.88828 15 2.70234V2.5C15 1.53477 14.2526 0.75 13.3333 0.75H1.66667ZM15 8.625H0V10.375C0 10.859 0.372396 11.25 0.833333 11.25H2.08333V10.375C2.08333 10.1344 2.27083 9.9375 2.5 9.9375C2.72917 9.9375 2.91667 10.1344 2.91667 10.375V11.25H5.41667V10.375C5.41667 10.1344 5.60417 9.9375 5.83333 9.9375C6.0625 9.9375 6.25 10.1344 6.25 10.375V11.25H8.75V10.375C8.75 10.1344 8.9375 9.9375 9.16667 9.9375C9.39583 9.9375 9.58333 10.1344 9.58333 10.375V11.25H12.0833V10.375C12.0833 10.1344 12.2708 9.9375 12.5 9.9375C12.7292 9.9375 12.9167 10.1344 12.9167 10.375V11.25H14.1667C14.6276 11.25 15 10.859 15 10.375V8.625ZM5 3.375V5.125C5 5.60898 4.6276 6 4.16667 6C3.70573 6 3.33333 5.60898 3.33333 5.125V3.375C3.33333 2.89102 3.70573 2.5 4.16667 2.5C4.6276 2.5 5 2.89102 5 3.375ZM8.33333 3.375V5.125C8.33333 5.60898 7.96094 6 7.5 6C7.03906 6 6.66667 5.60898 6.66667 5.125V3.375C6.66667 2.89102 7.03906 2.5 7.5 2.5C7.96094 2.5 8.33333 2.89102 8.33333 3.375ZM11.6667 3.375V5.125C11.6667 5.60898 11.2943 6 10.8333 6C10.3724 6 10 5.60898 10 5.125V3.375C10 2.89102 10.3724 2.5 10.8333 2.5C11.2943 2.5 11.6667 2.89102 11.6667 3.375Z" fill="black"/>
</svg>